<svg width="163" height="163" viewBox="0 0 163 163" fill="none" xmlns="http://www.w3.org/2000/svg">
<path d="M72.7299 76.8966C54.6716 64.3966 22.7299 31.0632 56.0632 6.06324C64.5966 -0.33676 89.3966 -6.43676 110.23 14.3966C118.172 22.3382 115.522 30.2216 97.7299 43.5632C89.7132 49.5716 78.5632 59.3966 85.2299 72.7299C97.7299 54.6799 131.063 22.7299 156.063 56.0632C162.463 64.6049 168.563 89.3966 147.73 110.23C139.788 118.172 131.905 115.522 118.563 97.7299C112.555 89.7216 102.73 78.5632 89.3966 85.2299C107.455 97.7299 139.397 131.063 106.063 156.063C97.5216 162.472 72.7299 168.563 51.8966 147.73C43.9549 139.788 46.6049 131.913 64.3966 118.563C72.4049 112.563 83.5632 102.73 76.8966 89.3966C64.3966 107.455 31.0632 139.397 6.06324 106.063C-0.33676 97.5299 -6.43676 72.7299 14.3966 51.8966C22.3382 43.9549 30.2216 46.6049 43.5632 64.3966C49.5716 72.4132 59.3966 83.5632 72.7299 76.8966Z" fill="currentColor"/>
</svg>
