<svg width="92" height="76" viewBox="0 0 92 76" fill="none" xmlns="http://www.w3.org/2000/svg">
<path d="M86.315 0.992996H5.68398C4.94271 0.992996 4.20871 1.13902 3.52388 1.42272C2.83906 1.70642 2.21682 2.12224 1.69271 2.64644C1.16861 3.17064 0.752894 3.79295 0.469315 4.47782C0.185736 5.1627 0.0398468 5.89673 0.0399781 6.638V55.83C0.0398468 56.5713 0.185736 57.3053 0.469315 57.9902C0.752894 58.675 1.16861 59.2974 1.69271 59.8216C2.21682 60.3458 2.83906 60.7616 3.52388 61.0453C4.20871 61.329 4.94271 61.475 5.68398 61.475H36.043V70.031H26.641C25.749 70.031 25.028 70.752 25.028 71.643V73.394C25.028 74.286 25.749 75.007 26.641 75.007H64.542C65.433 75.007 66.155 74.286 66.155 73.394V71.643C66.155 70.751 65.433 70.031 64.542 70.031H55.956V61.475H86.315C87.0564 61.4753 87.7905 61.3294 88.4755 61.0458C89.1605 60.7622 89.7829 60.3464 90.3072 59.8222C90.8314 59.298 91.2472 58.6756 91.5308 57.9906C91.8144 57.3056 91.9602 56.5714 91.96 55.83V6.638C91.96 5.14085 91.3652 3.70502 90.3066 2.64638C89.248 1.58774 87.8121 0.992996 86.315 0.992996ZM10.091 51.508V10.949H81.909V51.508H10.091Z" fill="currentColor"/>
</svg>
